<svg xmlns="http://www.w3.org/2000/svg" width="1800" height="1040" viewBox="0 0 1800 1040">
<defs>
          <marker id="arrow" markerWidth="12" markerHeight="12" refX="10" refY="6" orient="auto"><path d="M0,0 L12,6 L0,12 z" fill="#2563eb"/></marker>
          <marker id="money" markerWidth="12" markerHeight="12" refX="10" refY="6" orient="auto"><path d="M0,0 L12,6 L0,12 z" fill="#c2410c"/></marker>
          <style>
            .title{font:700 43px 'Hiragino Sans GB','Arial Unicode MS',sans-serif;fill:#172033}
            .head{font:700 25px 'Hiragino Sans GB','Arial Unicode MS',sans-serif;fill:#172033;text-anchor:middle}
            .body{font:500 20px 'Hiragino Sans GB','Arial Unicode MS',sans-serif;fill:#334155;text-anchor:middle}
            .rev{font:600 18px 'Hiragino Sans GB','Arial Unicode MS',sans-serif;fill:#7c2d12;text-anchor:middle}
            .legend{font:600 21px 'Hiragino Sans GB','Arial Unicode MS',sans-serif;fill:#334155}
            .note{font:500 19px 'Hiragino Sans GB','Arial Unicode MS',sans-serif;fill:#475569;text-anchor:middle}
          </style>
        </defs>
<rect width="1800" height="1040" fill="#f8fafc"/>
<text x="900" y="70" class="title" text-anchor="middle">支架、BOS与EPC：工程交付与资金流</text>
<line x1="160" y1="175" x2="1640" y2="175" stroke="#2563eb" stroke-width="5" marker-end="url(#arrow)"/>
<text x="900" y="150" class="legend" text-anchor="middle">蓝线：产品、设备、工程或电力向右交付</text>
<line x1="1640" y1="690" x2="160" y2="690" stroke="#c2410c" stroke-width="5" marker-end="url(#money)"/>
<text x="900" y="730" class="legend" text-anchor="middle">橙线：货款、工程款或电费沿合同向左回流；不是每一层都能留下利润</text>
<rect x="75" y="275" width="290" height="250" rx="8" fill="#e0f2fe" stroke="#64748b" stroke-width="2"/>
<text x="220.0" y="323" class="head"><tspan x="220.0" dy="0">设计与许可</tspan></text>
<text x="220.0" y="380" class="body"><tspan x="220.0" dy="0">资源、土地、接网和工程设计</tspan></text>
<line x1="93" y1="441" x2="347" y2="441" stroke="#94a3b8"/>
<text x="220.0" y="473" class="rev"><tspan x="220.0" dy="0">开发/设计按里程碑收费</tspan></text>
<line x1="370" y1="400" x2="396" y2="400" stroke="#2563eb" stroke-width="5" marker-end="url(#arrow)"/>
<rect x="403" y="275" width="290" height="250" rx="8" fill="#dcfce7" stroke="#64748b" stroke-width="2"/>
<text x="548.0" y="323" class="head"><tspan x="548.0" dy="0">BOS设备</tspan></text>
<text x="548.0" y="380" class="body"><tspan x="548.0" dy="0">支架、跟踪器、电缆、箱变</tspan></text>
<line x1="421" y1="441" x2="675" y2="441" stroke="#94a3b8"/>
<text x="548.0" y="473" class="rev"><tspan x="548.0" dy="0">设备交付确认收入</tspan></text>
<line x1="698" y1="400" x2="724" y2="400" stroke="#2563eb" stroke-width="5" marker-end="url(#arrow)"/>
<rect x="731" y="275" width="290" height="250" rx="8" fill="#fef3c7" stroke="#64748b" stroke-width="2"/>
<text x="876.0" y="323" class="head"><tspan x="876.0" dy="0">施工安装</tspan></text>
<text x="876.0" y="380" class="body"><tspan x="876.0" dy="0">土建、电气、吊装和联调</tspan></text>
<line x1="749" y1="441" x2="1003" y2="441" stroke="#94a3b8"/>
<text x="876.0" y="473" class="rev"><tspan x="876.0" dy="0">按工程进度确认收入</tspan></text>
<line x1="1026" y1="400" x2="1052" y2="400" stroke="#2563eb" stroke-width="5" marker-end="url(#arrow)"/>
<rect x="1059" y="275" width="290" height="250" rx="8" fill="#fae8ff" stroke="#64748b" stroke-width="2"/>
<text x="1204.0" y="323" class="head"><tspan x="1204.0" dy="0">并网验收</tspan></text>
<text x="1204.0" y="380" class="body"><tspan x="1204.0" dy="0">性能测试、移交和质保</tspan></text>
<line x1="1077" y1="441" x2="1331" y2="441" stroke="#94a3b8"/>
<text x="1204.0" y="473" class="rev"><tspan x="1204.0" dy="0">验收结算并释放部分尾款</tspan></text>
<line x1="1354" y1="400" x2="1380" y2="400" stroke="#2563eb" stroke-width="5" marker-end="url(#arrow)"/>
<rect x="1387" y="275" width="290" height="250" rx="8" fill="#fee2e2" stroke="#64748b" stroke-width="2"/>
<text x="1532.0" y="323" class="head"><tspan x="1532.0" dy="0">项目业主</tspan></text>
<text x="1532.0" y="380" class="body"><tspan x="1532.0" dy="0">以总投资换取未来发电现金流</tspan></text>
<line x1="1405" y1="441" x2="1659" y2="441" stroke="#94a3b8"/>
<text x="1532.0" y="473" class="rev"><tspan x="1532.0" dy="0">融资成本影响可接受工程价</tspan></text>
<rect x="105" y="790" width="600" height="145" rx="8" fill="#fff7ed" stroke="#c2410c" stroke-width="2"/>
<text x="405" y="835" class="head">最终付费方</text>
<text x="405" y="885" class="body"><tspan x="405" dy="0">光伏项目业主或融资主体</tspan></text>
<rect x="1095" y="790" width="600" height="145" rx="8" fill="#eff6ff" stroke="#2563eb" stroke-width="2"/>
<text x="1395" y="835" class="head">客户最终买到的价值</text>
<text x="1395" y="885" class="body"><tspan x="1395" dy="0">按预算、工期和并网要求交付可发电的电站</tspan></text>
<text x="900" y="995" class="note">读图顺序：先找最终付费方，再看合同交付和收入确认，最后判断直接成本、费用、回款与再投资后还剩多少现金。</text>
</svg>