<svg xmlns="http://www.w3.org/2000/svg" width="1500" height="980" viewBox="0 0 1500 980">
  <rect width="1500" height="980" fill="#f7f9fb"/>
  <text x="60" y="72" font-family="PingFang SC, Arial, sans-serif" font-size="36" font-weight="700" fill="#172033">储能相关 ETF 估值位置仪表盘</text>
  <text x="60" y="112" font-family="PingFang SC, Arial, sans-serif" font-size="18" fill="#5d6b7c">数据日期：指数估值 2026-06-26；ETF 行情与前复权价格分位 2026-06-30 09:59；持仓 2026Q1</text>

  <rect x="60" y="150" width="1380" height="150" rx="14" fill="#ffffff" stroke="#d8e0ea"/>
  <text x="92" y="195" font-family="PingFang SC, Arial, sans-serif" font-size="24" font-weight="700" fill="#172033">核心估值锚：国证新能源电池指数 980027</text>
  <text x="92" y="238" font-family="PingFang SC, Arial, sans-serif" font-size="22" fill="#1f2a3d">PE 28.69　PB 4.73　股息率 1.45%</text>
  <rect x="1010" y="177" width="360" height="70" rx="10" fill="#ffe5e5" stroke="#f29999"/>
  <text x="1040" y="221" font-family="PingFang SC, Arial, sans-serif" font-size="24" font-weight="700" fill="#b42318">PB 近三年分位 93.94%</text>
  <text x="92" y="275" font-family="PingFang SC, Arial, sans-serif" font-size="17" fill="#667085">读法：指数估值分位偏高，说明市场已反映较多乐观预期；这不是短期涨跌预测，而是安全边际提示。</text>

  <g font-family="PingFang SC, Arial, sans-serif">
    <rect x="60" y="340" width="420" height="210" rx="12" fill="#fff7ed" stroke="#fed7aa"/>
    <text x="90" y="382" font-size="24" font-weight="700" fill="#9a3412">159566 储能电池ETF易方达</text>
    <text x="90" y="425" font-size="20" fill="#1f2937">价格分位：88.85%</text>
    <rect x="90" y="448" width="330" height="22" rx="11" fill="#e5e7eb"/>
    <rect x="90" y="448" width="293" height="22" rx="11" fill="#f97316"/>
    <text x="90" y="505" font-size="18" fill="#475467">前复权回撤：-10.62%</text>
    <text x="90" y="532" font-size="18" fill="#475467">20日均成交额：4.45亿元</text>

    <rect x="540" y="340" width="420" height="210" rx="12" fill="#fff7ed" stroke="#fed7aa"/>
    <text x="570" y="382" font-size="24" font-weight="700" fill="#9a3412">159305 储能电池ETF广发</text>
    <text x="570" y="425" font-size="20" fill="#1f2937">价格分位：85.04%</text>
    <rect x="570" y="448" width="330" height="22" rx="11" fill="#e5e7eb"/>
    <rect x="570" y="448" width="281" height="22" rx="11" fill="#f97316"/>
    <text x="570" y="505" font-size="18" fill="#475467">前复权回撤：-10.44%</text>
    <text x="570" y="532" font-size="18" fill="#475467">20日均成交额：1.02亿元</text>

    <rect x="1020" y="340" width="420" height="210" rx="12" fill="#fefce8" stroke="#fde68a"/>
    <text x="1050" y="382" font-size="24" font-weight="700" fill="#854d0e">159755 电池ETF广发</text>
    <text x="1050" y="425" font-size="20" fill="#1f2937">价格分位：72.92%</text>
    <rect x="1050" y="448" width="330" height="22" rx="11" fill="#e5e7eb"/>
    <rect x="1050" y="448" width="241" height="22" rx="11" fill="#eab308"/>
    <text x="1050" y="505" font-size="18" fill="#475467">前复权回撤：-25.91%</text>
    <text x="1050" y="532" font-size="18" fill="#475467">储能纯度：中等，偏广义电池</text>

    <rect x="60" y="590" width="420" height="210" rx="12" fill="#fff7ed" stroke="#fed7aa"/>
    <text x="90" y="632" font-size="24" font-weight="700" fill="#9a3412">159796 电池ETF汇添富</text>
    <text x="90" y="675" font-size="20" fill="#1f2937">价格分位：87.22%</text>
    <rect x="90" y="698" width="330" height="22" rx="11" fill="#e5e7eb"/>
    <rect x="90" y="698" width="288" height="22" rx="11" fill="#f97316"/>
    <text x="90" y="755" font-size="18" fill="#475467">前复权回撤：-16.22%</text>
    <text x="90" y="782" font-size="18" fill="#475467">储能纯度：中等，主题更宽</text>

    <rect x="540" y="590" width="420" height="210" rx="12" fill="#ecfdf3" stroke="#bbf7d0"/>
    <text x="570" y="632" font-size="24" font-weight="700" fill="#166534">516160 新能源ETF南方</text>
    <text x="570" y="675" font-size="20" fill="#1f2937">价格分位：53.95%</text>
    <rect x="570" y="698" width="330" height="22" rx="11" fill="#e5e7eb"/>
    <rect x="570" y="698" width="178" height="22" rx="11" fill="#22c55e"/>
    <text x="570" y="755" font-size="18" fill="#475467">前复权回撤：-39.27%</text>
    <text x="570" y="782" font-size="18" fill="#475467">储能纯度：较低，新能源大盘</text>

    <rect x="1020" y="590" width="420" height="210" rx="12" fill="#ecfdf3" stroke="#bbf7d0"/>
    <text x="1050" y="632" font-size="24" font-weight="700" fill="#166534">515790 光伏ETF华泰柏瑞</text>
    <text x="1050" y="675" font-size="20" fill="#1f2937">价格分位：44.02%</text>
    <rect x="1050" y="698" width="330" height="22" rx="11" fill="#e5e7eb"/>
    <rect x="1050" y="698" width="145" height="22" rx="11" fill="#22c55e"/>
    <text x="1050" y="755" font-size="18" fill="#475467">前复权回撤：-46.13%</text>
    <text x="1050" y="782" font-size="18" fill="#475467">储能纯度：较低，光伏相邻链条</text>
  </g>

  <rect x="60" y="850" width="1380" height="78" rx="12" fill="#eef4ff" stroke="#c7d7fe"/>
  <text x="90" y="887" font-family="PingFang SC, Arial, sans-serif" font-size="20" font-weight="700" fill="#1d4ed8">读图结论</text>
  <text x="205" y="887" font-family="PingFang SC, Arial, sans-serif" font-size="19" fill="#1f2937">储能电池 ETF 的主题纯度较高，但价格位置和指数 PB 分位也偏高；当前更适合观察和设触发条件，不宜把行业景气直接等同于低位入场。</text>
</svg>
